<svg version="1.2" xmlns="http://www.w3.org/2000/svg" viewBox="0 0 1550 442" width="1550" height="442"><defs><clipPath clipPathUnits="userSpaceOnUse" id="cp1"><path d="m-713-7418h6510v9211h-6510z"/></clipPath></defs><style>.a{fill:#e30513}</style><g clip-path="url(#cp1)"><path class="a" d="m209.1 0.7c-36.2 0-70.2 9.8-99.9 26.9l39.4 48.9 28 33.7c11.3-4.1 23.4-6.3 36-6.3 61.4 0 111.2 52.6 111.2 117.4 0 45.7-24.8 85.3-60.9 104.7-2.3 1.4-43 25.6-112.7 25.6l-109.9-0.3c38 54.9 99.5 90.6 168.8 90.6 115.4 0 209-98.8 209-220.6 0-121.8-93.6-220.6-209-220.6zm-165 85.3l84 59c8.7-10.7 19.2-19.8 31-26.7l-72.7-75.5c-16 12.3-30.2 26.8-42.3 43.2zm77.1 121.6l103 41.9v-25.7l-87.7-52.6c-6.9 9.6-12.3 21.6-15.3 36.4zm26.4-48.9l76.6 53.8v-26.7l-44.3-45.9c-11.2 3.9-22.5 9.9-32.3 18.8zm76.6 131.3v-29.6l-105.3-35c-1 17 0.8 37.2 6.2 61 0 0-24-26.3-24.2-67l-98.2-32.6c-1.7 11.2-2.6 22.7-2.6 34.5 0 24 3.7 47 10.4 68.7zm-215.9-129.6l93.4 39.7c2.3-14.6 7.3-28.1 14.4-40.1l-85.4-53.5c-9.6 16.6-17.2 34.8-22.4 53.9zm91.5 143h-84.5c4.4 11.7 9.8 23 16 33.6h150.9l19.3-21.4h-90.8zm1407.7-36.8c-13.9 22.5-37.9 37.5-65.3 37.5-43.1 0-78-36.8-78-82.3 0-45.4 34.9-82.2 78-82.2 27.5 0 51.6 15.1 65.5 37.8l41.6-61.5c-26.7-30.1-64.6-49-106.8-49-80.7 0-146.2 69.1-146.2 154.3 0 85.3 65.5 154.4 146.2 154.4 41.8 0 79.5-18.6 106.1-48.2zm-514.5 0c-13.9 22.6-37.9 37.5-65.3 37.5-43.1 0-78-36.8-78-82.2 0-45.5 34.9-82.3 78-82.3 27.5 0 51.6 15.1 65.5 37.9l41.6-61.6c-26.7-30.1-64.6-49-106.8-49-80.7 0-146.2 69.1-146.2 154.4 0 85.2 65.5 154.3 146.2 154.3 41.8 0 79.5-18.5 106.1-48.2z"/><path fill-rule="evenodd" class="a" d="m1062.6 71.6h109.8c59.6 0 96 29 96 81.2 0 27.4-10.5 47.1-30.4 61.2 27.2 12.8 39.4 37.2 39.4 66.3 0 62.9-46.2 90.7-103 90.7h-111.8zm107.6 121.4c19.1 0 29.3-13.9 29.3-32.2 0-17.7-10.2-30.3-30.5-30.3h-38.5v62.5zm4.6 119.5c21.5 0 34.1-18.9 34.1-36 0-17.6-11.4-35.3-32.3-35.3h-46.2v71.3zm-562.3 63.2c-80.9 0-146.2-69-146.2-154.3 0-85.4 65.3-154.4 146.2-154.4 80.8 0 146.2 69 146.2 154.4 0 85.3-65.4 154.3-146.2 154.3zm77.6-153.8c0-45.5-34.9-82.2-78-82.2-43.1 0-77.9 36.7-77.9 82.2 0 45.5 34.8 82.3 77.9 82.3 43.1 0 78-36.8 78-82.3z"/></g></svg>