<svg version="1.2" xmlns="http://www.w3.org/2000/svg" viewBox="0 0 1550 442" width="1550" height="442"><defs><clipPath clipPathUnits="userSpaceOnUse" id="cp1"><path d="m-713-7418h6510v9211h-6510z"/></clipPath></defs><style>.a{fill:#fff}</style><g clip-path="url(#cp1)"><path fill-rule="evenodd" class="a" d="m418.1 221.3c0 121.8-93.6 220.6-209 220.6-69.3 0-130.8-35.7-168.8-90.6l109.9 0.3c69.7 0 110.4-24.2 112.7-25.6 36.1-19.4 60.9-59 60.9-104.7 0-64.8-49.8-117.4-111.2-117.4-12.6 0-24.7 2.2-36 6.3l-28-33.7-39.4-48.9c29.7-17.1 63.7-26.9 99.9-26.9 115.4 0 209 98.8 209 220.6zm-331.7-178.5l72.7 75.5c-11.8 6.9-22.3 16-31 26.7l-84-59c12.1-16.4 26.3-30.9 42.3-43.2zm50.1 128.4l87.7 52.6v25.7l-103-41.9c3-14.8 8.4-26.8 15.3-36.4zm43.4-31.3l44.3 45.9v26.7l-76.6-53.8c9.8-8.9 21.1-14.9 32.3-18.8zm-169.4 150.1c-6.7-21.7-10.4-44.7-10.4-68.7 0-11.8 0.9-23.3 2.6-34.5l98.2 32.6c0.2 40.7 24.2 67 24.2 67-5.4-23.8-7.2-44-6.2-61l105.3 35v29.6zm20.2-183.5l85.4 53.5c-7.1 12-12.1 25.5-14.4 40.1l-93.4-39.7c5.2-19.1 12.8-37.3 22.4-53.9zm80 209.1h90.8l-19.3 21.4h-150.9c-6.2-10.6-11.6-21.9-16-33.6h84.5zm1437.9 11.8c-26.6 29.6-64.3 48.2-106.1 48.2-80.7 0-146.2-69.1-146.2-154.4 0-85.2 65.5-154.3 146.2-154.3 42.2 0 80.1 18.9 106.8 49l-41.6 61.5c-13.9-22.7-38-37.8-65.5-37.8-43.1 0-78 36.8-78 82.2 0 45.5 34.9 82.3 78 82.3 27.4 0 51.4-15 65.3-37.5zm-514.5 0c-26.6 29.7-64.3 48.2-106.1 48.2-80.7 0-146.2-69.1-146.2-154.3 0-85.3 65.5-154.4 146.2-154.4 42.2 0 80.1 18.9 106.8 49l-41.6 61.6c-13.9-22.8-38-37.9-65.5-37.9-43.1 0-78 36.8-78 82.3 0 45.4 34.9 82.2 78 82.2 27.4 0 51.4-14.9 65.3-37.5z"/><path fill-rule="evenodd" class="a" d="m1062.6 71.6h109.8c59.6 0 96 29 96 81.2 0 27.4-10.5 47.1-30.4 61.2 27.2 12.8 39.4 37.2 39.4 66.3 0 62.9-46.2 90.7-103 90.7h-111.8zm107.6 121.4c19.1 0 29.3-13.9 29.3-32.2 0-17.7-10.2-30.3-30.5-30.3h-38.5v62.5zm4.6 119.5c21.5 0 34.1-18.9 34.1-36 0-17.6-11.4-35.3-32.3-35.3h-46.2v71.3zm-562.3 63.2c-80.9 0-146.2-69-146.2-154.3 0-85.4 65.3-154.4 146.2-154.4 80.8 0 146.2 69 146.2 154.4 0 85.3-65.4 154.3-146.2 154.3zm77.6-153.8c0-45.5-34.9-82.2-78-82.2-43.1 0-77.9 36.7-77.9 82.2 0 45.5 34.8 82.3 77.9 82.3 43.1 0 78-36.8 78-82.3z"/></g></svg>